<svg version="1" xmlns="http://www.w3.org/2000/svg" viewBox="0 0 48 48" enable-background="new 0 0 48 48">
    <path fill="#90CAF9" d="M43,30V18c0-2.2-1.8-4-4-4H9c-2.2,0-4,1.8-4,4v12c0,2.2,1.8,4,4,4h30C41.2,34,43,32.2,43,30z M9,18h30v12 L9,30V18z"/>
    <path fill="#E57373" d="M47.7,29.1l-2.8-2.8c-0.4-0.4-1.1-0.4-1.6,0L42,27.6l4.4,4.4l1.3-1.3C48.1,30.3,48.1,29.6,47.7,29.1z"/>
	<rect x="27.1" y="35.1" transform="matrix(.707 -.707 .707 .707 -16.508 36.511)" fill="#FF9800" width="17.4" height="6.2"/>
	<rect x="41.5" y="27.8" transform="matrix(-.707 .707 -.707 -.707 95.395 22.352)" fill="#B0BEC5" width="3.1" height="6.2"/>
	<polygon fill="#FFC107" points="27.5,42.2 26,48 31.8,46.5"/>
    <polygon fill="#37474F" points="26.7,45 26,48 29,47.3"/>
</svg>
